/vscmnt/brussel_pixiu_data/_data_brussel/112/vsc11236/PredSimResults/SUBJ04mtu3D/worker5.mot
version=1
nRows=4
nColumns=50
inDegrees=yes
endheader
                time	         pelvis_tilt	         pelvis_list	     pelvis_rotation	           pelvis_tx	           pelvis_ty	           pelvis_tz	       hip_flexion_r	     hip_adduction_r	      hip_rotation_r	        knee_angle_r	       ankle_angle_r	         mtp_angle_r	       hip_flexion_l	     hip_adduction_l	      hip_rotation_l	        knee_angle_l	       ankle_angle_l	         mtp_angle_l	    lumbar_extension	      lumbar_bending	     lumbar_rotation	 ercspn_r/activation	 intobl_r/activation	 extobl_r/activation	    abd_r/activation	    add_r/activation	hamstrings_r/activation	bifemsh_r/activation	glut_max_r/activation	iliopsoas_r/activation	rect_fem_r/activation	  vasti_r/activation	gastroc_r/activation	 soleus_r/activation	tib_ant_r/activation	 ercspn_l/activation	 intobl_l/activation	 extobl_l/activation	    abd_l/activation	    add_l/activation	hamstrings_l/activation	bifemsh_l/activation	glut_max_l/activation	iliopsoas_l/activation	rect_fem_l/activation	  vasti_l/activation	gastroc_l/activation	 soleus_l/activation	tib_ant_l/activation	
          0.00000000	         -2.97830518	          0.83999607	          8.39845404	          0.00000000	          0.88084232	         -0.01043633	         29.04257820	         -3.56463480	        -10.26267618	         -8.92452735	          4.67387836	          0.23484172	        -13.15788954	          0.07423519	         -8.85830091	         -7.21885701	          9.80953816	         25.23043569	        -13.97870686	         -4.21610067	         -6.85444111	          0.01892991	          0.23312829	          0.02260286	          0.01234458	          0.25849774	          0.07668535	          0.07571484	          0.01414536	          0.16071291	          0.02576487	          0.01503928	          0.01767983	          0.01621883	          0.32390104	          0.01913745	          0.01000009	          0.01000026	          0.05735386	          0.01000207	          0.03016111	          0.13459350	          0.01620697	          0.01000125	          0.01000038	          0.01000030	          0.35760256	          0.20340559	          0.01000004	
          0.01356816	         -3.05301484	          0.85930676	          8.18217250	          0.01627203	          0.87875495	         -0.01013820	         28.97517382	         -3.51622838	        -10.38226530	        -10.53479732	          4.36764894	          0.22384178	        -13.84577930	         -0.02602477	         -9.52742402	         -7.83380785	          9.33485809	         26.66635167	        -13.47970103	         -3.58469373	         -6.86492339	          0.01543876	          0.22955220	          0.01843423	          0.03355804	          0.21082364	          0.07106370	          0.06175124	          0.03179572	          0.13107269	          0.02101310	          0.01226563	          0.01441921	          0.01322763	          0.35923048	          0.02391511	          0.01000003	          0.01000023	          0.04677611	          0.01000095	          0.02459916	          0.10977057	          0.01321795	          0.01000062	          0.01000031	          0.01000043	          0.33075442	          0.19485678	          0.01000003	
          0.02713631	         -3.11221101	          0.81980655	          7.91117387	          0.03284608	          0.87696697	         -0.00975692	         28.84700089	         -3.42904907	        -10.53798166	        -12.00945318	          3.86189082	          0.21278432	        -14.40599928	         -0.20793137	        -10.23014685	         -8.73182146	          8.76067354	         28.13712018	        -12.95797637	         -2.86328012	         -6.84661285	          0.02350537	          0.18721601	          0.01503442	          0.05688357	          0.21427748	          0.06950597	          0.05036272	          0.03467183	          0.10689900	          0.01713770	          0.05637256	          0.01175993	          0.01078810	          0.38945175	          0.03727186	          0.01000001	          0.01000008	          0.03814921	          0.01000037	          0.02006285	          0.08952570	          0.01078018	          0.01502987	          0.01000235	          0.01000014	          0.30363046	          0.18155823	          0.01000004	
          0.04070447	         -3.15610287	          0.73606309	          7.58830859	          0.04957429	          0.87565578	         -0.00926375	         28.66297191	         -3.29931323	        -10.77955782	        -13.40278504	          3.37324798	          0.19090915	        -14.76312825	         -0.47191374	        -10.96758801	        -10.02847152	          8.05375078	         29.63670057	        -12.43620122	         -2.07559053	         -6.79742697	          0.02240591	          0.15268782	          0.01226164	          0.07690632	          0.20872230	          0.06708096	          0.04107467	          0.02827800	          0.08718366	          0.01397704	          0.10758339	          0.01000027	          0.01000018	          0.41767024	          0.04665601	          0.01000002	          0.01000008	          0.03111337	          0.01000051	          0.01636426	          0.07301456	          0.01000011	          0.01225829	          0.01000108	          0.01040192	          0.24763817	          0.16637072	          0.01000003	
